# Blender 4.4.3
# www.blender.org
mtllib itemback.mtl
o item_damaged
v 70.710701 0.000000 0.000000
v 0.000000 55.656200 3.999988
v 55.656200 0.000000 4.000000
v -55.656101 0.000000 4.000000
v 0.000000 -55.656101 4.000012
v 0.000000 70.710701 -0.000015
v -70.710701 0.000000 0.000000
v 0.000000 -70.710602 0.000015
v 0.000000 55.656200 -4.000012
v 55.656200 -0.000000 -4.000000
v -55.656101 -0.000000 -4.000000
v 0.000000 -55.656101 -3.999988
vn 0.9917 0.1286 -0.0000
vn -0.0000 0.9917 0.1285
vn 0.0639 0.1919 0.9793
vn 0.1532 -0.0510 0.9869
vn 0.1286 -0.9917 -0.0000
vn -0.0639 -0.1919 0.9793
vn -0.9917 -0.1286 -0.0000
vn -0.1532 0.0510 0.9869
vn 0.0639 0.1919 -0.9793
vn 0.1532 -0.0510 -0.9869
vn -0.0639 -0.1919 -0.9793
vn -0.1532 0.0510 -0.9869
vt 0.972251 0.497785
vt 0.501210 0.980389
vt 0.501210 0.877641
vt 0.871965 0.497785
vt 0.501211 0.015182
vt 0.501211 0.117930
vt 0.030170 0.497785
vt 0.130456 0.497785
vt 0.501132 0.881712
vt 0.501132 0.985534
vt 0.021145 0.497883
vt 0.123336 0.497883
vt 0.501132 0.010234
vt 0.501132 0.114056
vt 0.981118 0.497884
vt 0.878927 0.497884
s 1
usemtl mat007
f 1/1/1 6/2/2 2/3/3
f 3/4/4 1/1/1 2/3/3
f 8/5/5 1/1/1 3/4/4
f 5/6/6 8/5/5 3/4/4
f 7/7/7 8/5/5 5/6/6
f 4/8/8 7/7/7 5/6/6
f 6/2/2 7/7/7 4/8/8
f 2/3/3 6/2/2 4/8/8
f 4/8/8 5/6/6 3/4/4
f 2/3/3 4/8/8 3/4/4
f 9/9/9 6/10/2 1/11/1
f 10/12/10 9/9/9 1/11/1
f 10/12/10 1/11/1 8/13/5
f 12/14/11 10/12/10 8/13/5
f 12/14/11 8/13/5 7/15/7
f 11/16/12 12/14/11 7/15/7
f 11/16/12 7/15/7 6/10/2
f 9/9/9 11/16/12 6/10/2
f 10/12/10 12/14/11 11/16/12
f 9/9/9 10/12/10 11/16/12
