# Blender 4.4.3
# www.blender.org
mtllib air_sword.mtl
o item_damaged
v 70.710701 0.000000 0.000000
v 0.000000 55.656200 3.999984
v 55.656200 0.000000 4.000000
v -55.656101 0.000000 4.000000
v 0.000000 -55.656101 4.000016
v 0.000000 70.710701 -0.000020
v -70.710701 0.000000 0.000000
v 0.000000 -70.710602 0.000020
v 0.000000 55.656200 -4.000016
v 55.656200 -0.000000 -4.000000
v -55.656101 -0.000000 -4.000000
v 0.000000 -55.656101 -3.999984
vn 0.9917 0.1286 -0.0000
vn -0.0000 0.9917 0.1285
vn 0.0639 0.1919 0.9793
vn 0.1532 -0.0510 0.9869
vn 0.1286 -0.9917 -0.0000
vn -0.0639 -0.1919 0.9793
vn -0.9917 -0.1286 -0.0000
vn -0.1532 0.0510 0.9869
vn 0.0639 0.1919 -0.9793
vn 0.1532 -0.0510 -0.9869
vn -0.0639 -0.1919 -0.9793
vn -0.1532 0.0510 -0.9869
vt 0.972251 0.497785
vt 0.501210 0.980389
vt 0.501210 0.877641
vt 0.871965 0.497785
vt 0.501211 0.015182
vt 0.501211 0.117930
vt 0.030170 0.497785
vt 0.130456 0.497785
vt 0.501132 0.881712
vt 0.501132 0.985534
vt 0.021145 0.497883
vt 0.123336 0.497883
vt 0.501132 0.010234
vt 0.501132 0.114056
vt 0.981118 0.497884
vt 0.878927 0.497884
s 1
usemtl mat007
f 1/1/1 6/2/2 2/3/3
f 3/4/4 1/1/1 2/3/3
f 8/5/5 1/1/1 3/4/4
f 5/6/6 8/5/5 3/4/4
f 7/7/7 8/5/5 5/6/6
f 4/8/8 7/7/7 5/6/6
f 6/2/2 7/7/7 4/8/8
f 2/3/3 6/2/2 4/8/8
f 4/8/8 5/6/6 3/4/4
f 2/3/3 4/8/8 3/4/4
f 9/9/9 6/10/2 1/11/1
f 10/12/10 9/9/9 1/11/1
f 10/12/10 1/11/1 8/13/5
f 12/14/11 10/12/10 8/13/5
f 12/14/11 8/13/5 7/15/7
f 11/16/12 12/14/11 7/15/7
f 11/16/12 7/15/7 6/10/2
f 9/9/9 11/16/12 6/10/2
f 10/12/10 12/14/11 11/16/12
f 9/9/9 10/12/10 11/16/12
o item_blade
v 70.710701 0.000000 0.000000
v 0.000000 55.656200 3.999984
v 55.656200 0.000000 4.000000
v -55.656101 0.000000 4.000000
v 0.000000 -55.656101 4.000016
v 0.000000 70.710701 -0.000020
v -70.710701 0.000000 0.000000
v 0.000000 -70.710602 0.000020
v 0.000000 55.656200 -4.000016
v 55.656200 -0.000000 -4.000000
v -55.656101 -0.000000 -4.000000
v 0.000000 -55.656101 -3.999984
vn 0.9917 0.1286 -0.0000
vn -0.0000 0.9917 0.1285
vn 0.0639 0.1919 0.9793
vn 0.1532 -0.0510 0.9869
vn 0.1286 -0.9917 -0.0000
vn -0.0639 -0.1919 0.9793
vn -0.9917 -0.1286 -0.0000
vn -0.1532 0.0510 0.9869
vn 0.0639 0.1919 -0.9793
vn 0.1532 -0.0510 -0.9869
vn -0.0639 -0.1919 -0.9793
vn -0.1532 0.0510 -0.9869
vt 0.972251 0.497785
vt 0.501210 0.980389
vt 0.501210 0.877641
vt 0.871965 0.497785
vt 0.501211 0.015182
vt 0.501211 0.117930
vt 0.030170 0.497785
vt 0.130456 0.497785
vt 0.501132 0.881712
vt 0.501132 0.985534
vt 0.021145 0.497883
vt 0.123336 0.497883
vt 0.501132 0.010234
vt 0.501132 0.114056
vt 0.981118 0.497884
vt 0.878927 0.497884
s 1
usemtl mat007.001
f 13/17/13 18/18/14 14/19/15
f 15/20/16 13/17/13 14/19/15
f 20/21/17 13/17/13 15/20/16
f 17/22/18 20/21/17 15/20/16
f 19/23/19 20/21/17 17/22/18
f 16/24/20 19/23/19 17/22/18
f 18/18/14 19/23/19 16/24/20
f 14/19/15 18/18/14 16/24/20
f 16/24/20 17/22/18 15/20/16
f 14/19/15 16/24/20 15/20/16
f 21/25/21 18/26/14 13/27/13
f 22/28/22 21/25/21 13/27/13
f 22/28/22 13/27/13 20/29/17
f 24/30/23 22/28/22 20/29/17
f 24/30/23 20/29/17 19/31/19
f 23/32/24 24/30/23 19/31/19
f 23/32/24 19/31/19 18/26/14
f 21/25/21 23/32/24 18/26/14
f 22/28/22 24/30/23 23/32/24
f 21/25/21 22/28/22 23/32/24
o item_bladens
v 70.710701 0.000000 0.000000
v 0.000000 55.656200 3.999984
v 55.656200 0.000000 4.000000
v -55.656101 0.000000 4.000000
v 0.000000 -55.656101 4.000016
v 0.000000 70.710701 -0.000020
v -70.710701 0.000000 0.000000
v 0.000000 -70.710602 0.000020
v 0.000000 55.656200 -4.000016
v 55.656200 -0.000000 -4.000000
v -55.656101 -0.000000 -4.000000
v 0.000000 -55.656101 -3.999984
vn 0.9917 0.1286 -0.0000
vn -0.0000 0.9917 0.1285
vn 0.0639 0.1919 0.9793
vn 0.1532 -0.0510 0.9869
vn 0.1286 -0.9917 -0.0000
vn -0.0639 -0.1919 0.9793
vn -0.9917 -0.1286 -0.0000
vn -0.1532 0.0510 0.9869
vn 0.0639 0.1919 -0.9793
vn 0.1532 -0.0510 -0.9869
vn -0.0639 -0.1919 -0.9793
vn -0.1532 0.0510 -0.9869
vt 0.972251 0.497785
vt 0.501210 0.980389
vt 0.501210 0.877641
vt 0.871965 0.497785
vt 0.501211 0.015182
vt 0.501211 0.117930
vt 0.030170 0.497785
vt 0.130456 0.497785
vt 0.501132 0.881712
vt 0.501132 0.985534
vt 0.021145 0.497883
vt 0.123336 0.497883
vt 0.501132 0.010234
vt 0.501132 0.114056
vt 0.981118 0.497884
vt 0.878927 0.497884
s 1
usemtl mat007.002
f 25/33/25 30/34/26 26/35/27
f 27/36/28 25/33/25 26/35/27
f 32/37/29 25/33/25 27/36/28
f 29/38/30 32/37/29 27/36/28
f 31/39/31 32/37/29 29/38/30
f 28/40/32 31/39/31 29/38/30
f 30/34/26 31/39/31 28/40/32
f 26/35/27 30/34/26 28/40/32
f 28/40/32 29/38/30 27/36/28
f 26/35/27 28/40/32 27/36/28
f 33/41/33 30/42/26 25/43/25
f 34/44/34 33/41/33 25/43/25
f 34/44/34 25/43/25 32/45/29
f 36/46/35 34/44/34 32/45/29
f 36/46/35 32/45/29 31/47/31
f 35/48/36 36/46/35 31/47/31
f 35/48/36 31/47/31 30/42/26
f 33/41/33 35/48/36 30/42/26
f 34/44/34 36/46/35 35/48/36
f 33/41/33 34/44/34 35/48/36
o blade
v -1.000000 0.000000 1.000000
v 1.000000 0.000000 1.000000
v -1.000000 0.000000 -1.000000
v 1.000000 0.000000 -1.000000
vn -0.0000 1.0000 -0.0000
vt 0.000000 0.000000
vt 1.000000 0.000000
vt 1.000000 1.000000
vt 0.000000 1.000000
s 0
f 37/49/37 38/50/37 40/51/37 39/52/37
